<svg width="32" height="32" viewBox="0 0 32 32" fill="none" xmlns="http://www.w3.org/2000/svg">
<path d="M30.6666 4.00001C29.3898 4.90065 27.9761 5.58949 26.48 6.04001C25.677 5.11669 24.6098 4.46227 23.4227 4.16525C22.2356 3.86822 20.986 3.94294 19.8428 4.37928C18.6995 4.81563 17.7179 5.59255 17.0306 6.60497C16.3433 7.61739 15.9836 8.81646 16 10.04V11.3733C13.6568 11.4341 11.335 10.9144 9.24132 9.8606C7.14764 8.80678 5.34707 7.25152 3.99998 5.33334C3.99998 5.33334 -1.33335 17.3333 10.6666 22.6667C7.92068 24.5306 4.64952 25.4652 1.33331 25.3333C13.3333 32 28 25.3333 28 10C27.9988 9.62861 27.963 9.25814 27.8933 8.89334C29.2541 7.55133 30.2144 5.85696 30.6666 4.00001V4.00001Z" stroke="#731843" stroke-width="2" stroke-linecap="round" stroke-linejoin="round"/>
</svg>
